<svg xmlns="http://www.w3.org/2000/svg" viewBox="0 0 512 512">
  <defs>
    <linearGradient id="bg" x1="72" y1="56" x2="436" y2="452" gradientUnits="userSpaceOnUse">
      <stop stop-color="#2dd4bf"/>
      <stop offset="0.52" stop-color="#0f766e"/>
      <stop offset="1" stop-color="#1f2937"/>
    </linearGradient>
    <linearGradient id="chip" x1="140" y1="140" x2="366" y2="366" gradientUnits="userSpaceOnUse">
      <stop stop-color="#f8fafc"/>
      <stop offset="1" stop-color="#c7f9ee"/>
    </linearGradient>
  </defs>
  <rect width="512" height="512" rx="112" fill="url(#bg)"/>
  <path d="M110 164c0-28 22-50 50-50h176c28 0 50 22 50 50v40h-48v-32c0-8-6-14-14-14H172c-8 0-14 6-14 14v168c0 8 6 14 14 14h36v48h-48c-28 0-50-22-50-50V164z" fill="url(#chip)"/>
  <path d="M204 198h116M204 246h78M204 294h108" stroke="#0f766e" stroke-width="26" stroke-linecap="round"/>
  <rect x="222" y="222" width="182" height="182" rx="44" fill="#101816" stroke="#2dd4bf" stroke-width="16"/>
  <path d="M270 302c0-32 26-58 58-58 22 0 42 12 52 30l-36 20c-4-10-12-16-24-16-14 0-26 12-26 28s12 28 30 28c10 0 20-4 26-10h-32v-30h72v18c0 44-30 76-70 76-42 0-74-32-74-74z" fill="#2dd4bf"/>
  <path d="M84 256h42M426 256h42M256 84v42M256 426v42" stroke="#fbbf24" stroke-width="20" stroke-linecap="round"/>
</svg>
