<svg xmlns="http://www.w3.org/2000/svg" viewBox="0 0 256 256" role="img" aria-label="Smart English Cards">
  <defs>
    <linearGradient id="bg" x1="36" y1="28" x2="218" y2="226" gradientUnits="userSpaceOnUse">
      <stop stop-color="#2dd4bf"/>
      <stop offset="0.52" stop-color="#0f766e"/>
      <stop offset="1" stop-color="#1f2937"/>
    </linearGradient>
    <linearGradient id="chip" x1="70" y1="70" x2="183" y2="183" gradientUnits="userSpaceOnUse">
      <stop stop-color="#f8fafc"/>
      <stop offset="1" stop-color="#c7f9ee"/>
    </linearGradient>
  </defs>
  <rect width="256" height="256" rx="56" fill="url(#bg)"/>
  <path d="M55 82c0-14 11-25 25-25h88c14 0 25 11 25 25v20h-24V86c0-4-3-7-7-7H86c-4 0-7 3-7 7v84c0 4 3 7 7 7h18v24H80c-14 0-25-11-25-25V82z" fill="url(#chip)"/>
  <path d="M102 99h58M102 123h39M102 147h54" stroke="#0f766e" stroke-width="13" stroke-linecap="round"/>
  <rect x="111" y="111" width="91" height="91" rx="22" fill="#101816" stroke="#2dd4bf" stroke-width="8"/>
  <path d="M135 151c0-16 13-29 29-29 11 0 21 6 26 15l-18 10c-2-5-6-8-12-8-7 0-13 6-13 14s6 14 15 14c5 0 10-2 13-5h-16v-15h36v9c0 22-15 38-35 38-21 0-37-16-37-37z" fill="#2dd4bf"/>
  <path d="M42 128h21M213 128h21M128 42v21M128 213v21" stroke="#fbbf24" stroke-width="10" stroke-linecap="round"/>
</svg>
